<svg xmlns="http://www.w3.org/2000/svg" viewBox="0 0 256 256" fill="none">
  <defs>
    <linearGradient id="bg" x1="32" y1="24" x2="224" y2="232" gradientUnits="userSpaceOnUse">
      <stop stop-color="#0B2232"/>
      <stop offset="1" stop-color="#123A52"/>
    </linearGradient>
    <linearGradient id="wave" x1="60" y1="92" x2="196" y2="156" gradientUnits="userSpaceOnUse">
      <stop stop-color="#2DD4BF"/>
      <stop offset="0.55" stop-color="#22D3EE"/>
      <stop offset="1" stop-color="#FDBA74"/>
    </linearGradient>
    <filter id="shadow" x="31" y="43" width="194" height="136" filterUnits="userSpaceOnUse" color-interpolation-filters="sRGB">
      <feDropShadow dx="0" dy="8" stdDeviation="10" flood-color="#04131D" flood-opacity="0.35"/>
    </filter>
  </defs>

  <rect x="20" y="20" width="216" height="216" rx="48" fill="url(#bg)"/>
  <rect x="20" y="20" width="216" height="216" rx="48" stroke="#7DD3FC" stroke-opacity="0.22" stroke-width="2"/>

  <g opacity="0.18" stroke="#CFFAFE" stroke-width="2">
    <path d="M52 76H204"/>
    <path d="M52 128H204"/>
    <path d="M52 180H204"/>
    <path d="M76 52V204"/>
    <path d="M128 52V204"/>
    <path d="M180 52V204"/>
  </g>

  <g filter="url(#shadow)">
    <path
      d="M58 147C71 147 78 106 94 106C110 106 113 156 128 156C143 156 147 88 163 88C179 88 184 129 198 129"
      stroke="url(#wave)"
      stroke-width="14"
      stroke-linecap="round"
      stroke-linejoin="round"/>
  </g>

  <circle cx="94" cy="106" r="9.5" fill="#F8FAFC" stroke="#22D3EE" stroke-width="5"/>
  <circle cx="128" cy="156" r="9.5" fill="#F8FAFC" stroke="#2DD4BF" stroke-width="5"/>
  <circle cx="163" cy="88" r="9.5" fill="#F8FAFC" stroke="#FDBA74" stroke-width="5"/>
</svg>
